<?xml version="1.0" encoding="UTF-8"?>
<svg width="200px" height="200px" viewBox="0 0 200 200" version="1.1" xmlns="http://www.w3.org/2000/svg" xmlns:xlink="http://www.w3.org/1999/xlink">
    <title>Group</title>
    <g id="Light" stroke="none" stroke-width="1" fill="none" fill-rule="evenodd">
        <g id="Launch-Screen" transform="translate(-95.000000, -322.000000)">
            <g id="Group" transform="translate(95.000000, 322.000000)">
                <rect id="Rectangle" fill="#3375F6" x="0" y="0" width="200" height="200" rx="40"></rect>
                <g id="nke_logo_foreground" transform="translate(21.333333, 37.333333)" fill="#FFFFFF" fill-rule="nonzero">
                    <path d="M66.6666667,126 L36,126 C21.3333333,126 16,117.333333 16,102 L16,84 C16,78.6666667 8.66666667,72.6666667 0,72.6666667 L0,53.3333333 C8.66666667,53.3333333 16,47.3333333 16,42 L16,24 C16,7.33333333 22.6666667,0 36,0 L43.3333333,0 L43.3333333,8.66666667 C32.6666667,8.66666667 28.6666667,15.3333333 28.6666667,23.3333333 L28.6666667,44.6666667 C28.6666667,54.6666667 17.3333333,62 9.33333333,62 L9.33333333,64 C17.3333333,64 28.6666667,71.3333333 28.6666667,81.3333333 L28.6666667,101.333333 C28.6666667,110.666667 32,117.333333 44.6666667,117.333333 L58.6666667,117.333333 L58.6666667,103.333333 L66.6666667,103.333333 L66.6666667,126 Z" id="left"></path>
                    <path d="M90.6666667,126 L121.333333,126 C136,126 141.333333,117.333333 141.333333,102 L141.333333,84 C141.333333,78.6666667 148.666667,72.6666667 157.333333,72.6666667 L157.333333,53.3333333 C148.666667,53.3333333 141.333333,47.3333333 141.333333,42 L141.333333,24 C141.333333,7.33333333 134.666667,0 121.333333,0 L114,0 L114,8.66666667 C124.666667,8.66666667 128.666667,15.3333333 128.666667,23.3333333 L128.666667,44.6666667 C128.666667,54.6666667 140,62 148,62 L148,64 C140,64 128.666667,71.3333333 128.666667,81.3333333 L128.666667,101.333333 C128.666667,110.666667 125.333333,117.333333 112.666667,117.333333 L98.6666667,117.333333 L98.6666667,102.666667 L90.6666667,102.666667 L90.6666667,126 Z" id="right"></path>
                    <rect id="center" x="74.6666667" y="38" width="8" height="88"></rect>
                    <polygon id="rbranch" points="58.6666667 93.3333333 40 93.3333333 40 54 48 54 48 86 58.6666667 86 58.6666667 66.6666667 66.6666667 66.6666667 66.6666667 103.333333 58.6666667 103.333333"></polygon>
                    <polygon id="lbranch" points="90.6666667 102.666667 117.333333 102.666667 117.333333 59.3333333 109.333333 59.3333333 109.333333 96 98.6666667 96 98.6666667 80.6666667 90.6666667 80.6666667"></polygon>
                    <g id="re" transform="translate(71.333333, 24.666667)">
                        <circle id="Oval" cx="7.33333333" cy="7.33333333" r="7.33333333"></circle>
                    </g>
                    <g id="re-2" transform="translate(87.333333, 67.333333)">
                        <circle id="Oval" cx="7.33333333" cy="7.33333333" r="7.33333333"></circle>
                    </g>
                    <g id="le" transform="translate(55.333333, 53.333333)">
                        <circle id="Oval" cx="7.33333333" cy="7.33333333" r="7.33333333"></circle>
                    </g>
                    <g id="le-2" transform="translate(36.666667, 40.666667)">
                        <circle id="Oval" cx="7.33333333" cy="7.33333333" r="7.33333333"></circle>
                    </g>
                    <g id="ce" transform="translate(106.000000, 46.000000)">
                        <circle id="Oval" cx="7.33333333" cy="7.33333333" r="7.33333333"></circle>
                    </g>
                </g>
            </g>
        </g>
    </g>
</svg>